0 Bed
0 Name: Bed.ldr
0 Author: Lego Builder

1 70 40 -8 20 1 0 0 0 1 0 0 0 1 3020.dat
1 70 40 -8 60 1 0 0 0 1 0 0 0 1 3020.dat
1 70 40 -8 100 1 0 0 0 1 0 0 0 1 3020.dat
1 70 40 -32 10 1 0 0 0 1 0 0 0 1 3010.dat
1 15 40 -16 30 1 0 0 0 1 0 0 0 1 2431.dat
1 15 40 -16 50 1 0 0 0 1 0 0 0 1 2431.dat
1 15 40 -16 70 1 0 0 0 1 0 0 0 1 2431.dat
1 15 40 -16 90 1 0 0 0 1 0 0 0 1 2431.dat
1 15 40 -16 110 1 0 0 0 1 0 0 0 1 2431.dat
1 15 40 -24 30 1 0 0 0 1 0 0 0 1 3069b.dat
1 4 40 -24 70 1 0 0 0 1 0 0 0 1 2431.dat
1 4 40 -24 90 1 0 0 0 1 0 0 0 1 2431.dat
1 4 40 -24 110 1 0 0 0 1 0 0 0 1 2431.dat
0 STEP
