0 Bookshelf
0 Name: Bookshelf.ldr
0 Author: Lego Builder

1 70 40 -8 10 1 0 0 0 1 0 0 0 1 3710.dat
1 4 10 -16 10 1 0 0 0 1 0 0 0 1 3024.dat
1 1 30 -16 10 1 0 0 0 1 0 0 0 1 3024.dat
1 14 50 -16 10 1 0 0 0 1 0 0 0 1 3024.dat
1 2 70 -16 10 1 0 0 0 1 0 0 0 1 3024.dat
1 14 10 -24 10 1 0 0 0 1 0 0 0 1 3024.dat
1 2 30 -24 10 1 0 0 0 1 0 0 0 1 3024.dat
1 15 50 -24 10 1 0 0 0 1 0 0 0 1 3024.dat
1 25 70 -24 10 1 0 0 0 1 0 0 0 1 3024.dat
1 70 40 -40 10 1 0 0 0 1 0 0 0 1 3710.dat
1 1 10 -48 10 1 0 0 0 1 0 0 0 1 3024.dat
1 14 30 -48 10 1 0 0 0 1 0 0 0 1 3024.dat
1 2 50 -48 10 1 0 0 0 1 0 0 0 1 3024.dat
1 15 70 -48 10 1 0 0 0 1 0 0 0 1 3024.dat
1 2 10 -56 10 1 0 0 0 1 0 0 0 1 3024.dat
1 15 30 -56 10 1 0 0 0 1 0 0 0 1 3024.dat
1 25 50 -56 10 1 0 0 0 1 0 0 0 1 3024.dat
1 4 70 -56 10 1 0 0 0 1 0 0 0 1 3024.dat
1 70 40 -72 10 1 0 0 0 1 0 0 0 1 3710.dat
1 14 10 -80 10 1 0 0 0 1 0 0 0 1 3024.dat
1 2 30 -80 10 1 0 0 0 1 0 0 0 1 3024.dat
1 15 50 -80 10 1 0 0 0 1 0 0 0 1 3024.dat
1 25 70 -80 10 1 0 0 0 1 0 0 0 1 3024.dat
1 15 10 -88 10 1 0 0 0 1 0 0 0 1 3024.dat
1 25 30 -88 10 1 0 0 0 1 0 0 0 1 3024.dat
1 4 50 -88 10 1 0 0 0 1 0 0 0 1 3024.dat
1 1 70 -88 10 1 0 0 0 1 0 0 0 1 3024.dat
1 70 40 -104 10 1 0 0 0 1 0 0 0 1 3710.dat
1 70 10 -24 30 1 0 0 0 1 0 0 0 1 3005.dat
1 70 10 -48 30 1 0 0 0 1 0 0 0 1 3005.dat
1 70 10 -72 30 1 0 0 0 1 0 0 0 1 3005.dat
1 70 10 -96 30 1 0 0 0 1 0 0 0 1 3005.dat
1 70 70 -24 30 1 0 0 0 1 0 0 0 1 3005.dat
1 70 70 -48 30 1 0 0 0 1 0 0 0 1 3005.dat
1 70 70 -72 30 1 0 0 0 1 0 0 0 1 3005.dat
1 70 70 -96 30 1 0 0 0 1 0 0 0 1 3005.dat
1 70 40 -104 30 1 0 0 0 1 0 0 0 1 3710.dat
0 STEP
