0 Small car
0 Name: Small car.ldr
0 Author: Lego Builder

1 72 60 -8 20 1 0 0 0 1 0 0 0 1 3795.dat
1 0 20 -4.06 20 0 0 1 0 1 0 -1 0 0 4600.dat
1 71 20 1.94 46 1 0 0 0 1 0 0 0 1 4624.dat
1 0 20 1.94 46 1 0 0 0 1 0 0 0 1 3641.dat
1 71 20 1.94 -6 -1 0 0 0 1 0 0 0 -1 4624.dat
1 0 20 1.94 -6 -1 0 0 0 1 0 0 0 -1 3641.dat
1 0 100 -4.06 20 0 0 1 0 1 0 -1 0 0 4600.dat
1 71 100 1.94 46 1 0 0 0 1 0 0 0 1 4624.dat
1 0 100 1.94 46 1 0 0 0 1 0 0 0 1 3641.dat
1 71 100 1.94 -6 -1 0 0 0 1 0 0 0 -1 4624.dat
1 0 100 1.94 -6 -1 0 0 0 1 0 0 0 -1 3641.dat
0 STEP
1 4 30 -32 20 0 0 1 0 1 0 -1 0 0 3039.dat
1 4 80 -32 20 1 0 0 0 1 0 0 0 1 3001.dat
0 STEP
1 47 70 -56 20 0 0 1 0 1 0 -1 0 0 3039.dat
1 4 100 -56 20 1 0 0 0 1 0 0 0 1 3003.dat
1 4 100 -64 20 1 0 0 0 1 0 0 0 1 3068b.dat
0 STEP
