0 Carousel
0 Name: Carousel.ldr
0 Author: Lego Builder

1 19 160 -4 160 1 0 0 0 1 0 0 0 1 3867.dat
1 15 10 -32 10 1 0 0 0 1 0 0 0 1 3062b.dat
1 46 10 -56 10 1 0 0 0 1 0 0 0 1 3062b.dat
1 15 310 -32 10 1 0 0 0 1 0 0 0 1 3062b.dat
1 46 310 -56 10 1 0 0 0 1 0 0 0 1 3062b.dat
1 15 10 -32 310 1 0 0 0 1 0 0 0 1 3062b.dat
1 46 10 -56 310 1 0 0 0 1 0 0 0 1 3062b.dat
1 15 310 -32 310 1 0 0 0 1 0 0 0 1 3062b.dat
1 46 310 -56 310 1 0 0 0 1 0 0 0 1 3062b.dat
0 STEP
1 72 160 -32 160 1 0 0 0 1 0 0 0 1 3403.dat
0 !BUILDER MOTOR 5
1 72 160 -32 160 1 0 0 0 1 0 0 0 1 3404.dat
0 STEP
1 14 160 -40 160 1 0 0 0 1 0 0 0 1 74611.dat
1 4 160 -64 160 1 0 0 0 1 0 0 0 1 3941.dat
1 15 160 -88 160 1 0 0 0 1 0 0 0 1 3941.dat
1 4 160 -112 160 1 0 0 0 1 0 0 0 1 3941.dat
1 15 160 -136 160 1 0 0 0 1 0 0 0 1 3941.dat
1 4 160 -160 160 1 0 0 0 1 0 0 0 1 3941.dat
1 15 160 -184 160 1 0 0 0 1 0 0 0 1 3941.dat
0 STEP
1 4 160 -208 160 1 0 0 0 1 0 0 0 1 3961.dat
1 14 160 -256 160 1 0 0 0 1 0 0 0 1 3942c.dat
0 STEP
1 1 160 -80 110 1 0 0 0 1 0 0 0 1 3815b.dat
1 1 160 -68 110 1 0 0 0 1 0 0 0 1 3816c.dat
1 1 160 -68 110 1 0 0 0 1 0 0 0 1 3817c.dat
1 4 160 -112 110 1 0 0 0 1 0 0 0 1 973c01.dat
1 14 160 -136 110 1 0 0 0 1 0 0 0 1 3626c.dat
1 6 160 -136 110 1 0 0 0 1 0 0 0 1 3901.dat
1 379 160 -80 210 -1 0 0 0 1 0 0 0 -1 3815b.dat
1 379 160 -68 210 -1 0 0 0 1 0 0 0 -1 3816c.dat
1 379 160 -68 210 -1 0 0 0 1 0 0 0 -1 3817c.dat
1 15 160 -112 210 -1 0 0 0 1 0 0 0 -1 76382p0e.dat
1 14 160 -136 210 -1 0 0 0 1 0 0 0 -1 3626c.dat
1 0 160 -136 210 -1 0 0 0 1 0 0 0 -1 3901.dat
1 0 110 -80 160 0 0 1 0 1 0 -1 0 0 3815b.dat
1 0 110 -68 160 0 0 1 0 1 0 -1 0 0 3816c.dat
1 0 110 -68 160 0 0 1 0 1 0 -1 0 0 3817c.dat
1 2 110 -112 160 0 0 1 0 1 0 -1 0 0 973c01.dat
1 14 110 -136 160 0 0 1 0 1 0 -1 0 0 3626c.dat
1 14 110 -136 160 0 0 1 0 1 0 -1 0 0 3833.dat
1 4 210 -80 160 0 0 -1 0 1 0 1 0 0 3815b.dat
1 4 210 -68 160 0 0 -1 0 1 0 1 0 0 3816c.dat
1 4 210 -68 160 0 0 -1 0 1 0 1 0 0 3817c.dat
1 14 210 -112 160 0 0 -1 0 1 0 1 0 0 973c01.dat
1 14 210 -136 160 0 0 -1 0 1 0 1 0 0 3626c.dat
1 25 210 -136 160 0 0 -1 0 1 0 1 0 0 3901.dat
0 STEP
