0 Wall section
0 Name: Wall section.ldr
0 Author: Lego Builder

1 72 80 -8 20 1 0 0 0 1 0 0 0 1 3034.dat
1 71 80 -32 20 1 0 0 0 1 0 0 0 1 3007.dat
1 71 20 -56 20 1 0 0 0 1 0 0 0 1 3003.dat
1 71 100 -56 20 1 0 0 0 1 0 0 0 1 2456.dat
1 71 80 -80 20 1 0 0 0 1 0 0 0 1 3007.dat
1 71 20 -104 20 1 0 0 0 1 0 0 0 1 3003.dat
1 71 100 -104 20 1 0 0 0 1 0 0 0 1 2456.dat
1 71 10 -128 10 1 0 0 0 1 0 0 0 1 3005.dat
1 71 50 -128 10 1 0 0 0 1 0 0 0 1 3005.dat
1 71 90 -128 10 1 0 0 0 1 0 0 0 1 3005.dat
1 71 130 -128 10 1 0 0 0 1 0 0 0 1 3005.dat
1 71 10 -128 30 1 0 0 0 1 0 0 0 1 3005.dat
1 71 50 -128 30 1 0 0 0 1 0 0 0 1 3005.dat
1 71 90 -128 30 1 0 0 0 1 0 0 0 1 3005.dat
1 71 130 -128 30 1 0 0 0 1 0 0 0 1 3005.dat
0 STEP
