0 Corner tower
0 Name: Corner tower.ldr
0 Author: Lego Builder

1 72 60 -8 20 1 0 0 0 1 0 0 0 1 3795.dat
1 72 60 -8 60 1 0 0 0 1 0 0 0 1 3795.dat
1 72 60 -8 100 1 0 0 0 1 0 0 0 1 3795.dat
1 71 60 -32 10 1 0 0 0 1 0 0 0 1 3009.dat
1 71 20 -56 10 1 0 0 0 1 0 0 0 1 3004.dat
1 71 80 -56 10 1 0 0 0 1 0 0 0 1 3010.dat
1 71 60 -80 10 1 0 0 0 1 0 0 0 1 3009.dat
1 71 20 -104 10 1 0 0 0 1 0 0 0 1 3004.dat
1 71 100 -104 10 1 0 0 0 1 0 0 0 1 3004.dat
1 71 20 -128 10 1 0 0 0 1 0 0 0 1 3004.dat
1 71 100 -128 10 1 0 0 0 1 0 0 0 1 3004.dat
1 71 20 -152 10 1 0 0 0 1 0 0 0 1 3004.dat
1 71 80 -152 10 1 0 0 0 1 0 0 0 1 3010.dat
1 71 60 -176 10 1 0 0 0 1 0 0 0 1 3009.dat
1 71 20 -200 10 1 0 0 0 1 0 0 0 1 3004.dat
1 71 80 -200 10 1 0 0 0 1 0 0 0 1 3010.dat
1 71 60 -224 10 1 0 0 0 1 0 0 0 1 3009.dat
1 71 60 -32 110 1 0 0 0 1 0 0 0 1 3009.dat
1 71 20 -56 110 1 0 0 0 1 0 0 0 1 3004.dat
1 71 80 -56 110 1 0 0 0 1 0 0 0 1 3010.dat
1 71 60 -80 110 1 0 0 0 1 0 0 0 1 3009.dat
1 71 20 -104 110 1 0 0 0 1 0 0 0 1 3004.dat
1 71 100 -104 110 1 0 0 0 1 0 0 0 1 3004.dat
1 71 20 -128 110 1 0 0 0 1 0 0 0 1 3004.dat
1 71 100 -128 110 1 0 0 0 1 0 0 0 1 3004.dat
1 71 20 -152 110 1 0 0 0 1 0 0 0 1 3004.dat
1 71 80 -152 110 1 0 0 0 1 0 0 0 1 3010.dat
1 71 60 -176 110 1 0 0 0 1 0 0 0 1 3009.dat
1 71 20 -200 110 1 0 0 0 1 0 0 0 1 3004.dat
1 71 80 -200 110 1 0 0 0 1 0 0 0 1 3010.dat
1 71 60 -224 110 1 0 0 0 1 0 0 0 1 3009.dat
1 71 10 -32 60 0 0 1 0 1 0 -1 0 0 3010.dat
1 71 10 -56 40 0 0 1 0 1 0 -1 0 0 3004.dat
1 71 10 -56 80 0 0 1 0 1 0 -1 0 0 3004.dat
1 71 10 -80 60 0 0 1 0 1 0 -1 0 0 3010.dat
1 71 10 -104 30 0 0 1 0 1 0 -1 0 0 3005.dat
1 71 10 -104 90 0 0 1 0 1 0 -1 0 0 3005.dat
1 71 10 -128 30 0 0 1 0 1 0 -1 0 0 3005.dat
1 71 10 -128 90 0 0 1 0 1 0 -1 0 0 3005.dat
1 71 10 -152 40 0 0 1 0 1 0 -1 0 0 3004.dat
1 71 10 -152 80 0 0 1 0 1 0 -1 0 0 3004.dat
1 71 10 -176 60 0 0 1 0 1 0 -1 0 0 3010.dat
1 71 10 -200 40 0 0 1 0 1 0 -1 0 0 3004.dat
1 71 10 -200 80 0 0 1 0 1 0 -1 0 0 3004.dat
1 71 10 -224 60 0 0 1 0 1 0 -1 0 0 3010.dat
1 71 110 -32 60 0 0 1 0 1 0 -1 0 0 3010.dat
1 71 110 -56 40 0 0 1 0 1 0 -1 0 0 3004.dat
1 71 110 -56 80 0 0 1 0 1 0 -1 0 0 3004.dat
1 71 110 -80 60 0 0 1 0 1 0 -1 0 0 3010.dat
1 71 110 -104 30 0 0 1 0 1 0 -1 0 0 3005.dat
1 71 110 -104 90 0 0 1 0 1 0 -1 0 0 3005.dat
1 71 110 -128 30 0 0 1 0 1 0 -1 0 0 3005.dat
1 71 110 -128 90 0 0 1 0 1 0 -1 0 0 3005.dat
1 71 110 -152 40 0 0 1 0 1 0 -1 0 0 3004.dat
1 71 110 -152 80 0 0 1 0 1 0 -1 0 0 3004.dat
1 71 110 -176 60 0 0 1 0 1 0 -1 0 0 3010.dat
1 71 110 -200 40 0 0 1 0 1 0 -1 0 0 3004.dat
1 71 110 -200 80 0 0 1 0 1 0 -1 0 0 3004.dat
1 71 110 -224 60 0 0 1 0 1 0 -1 0 0 3010.dat
0 STEP
1 72 60 -232 20 1 0 0 0 1 0 0 0 1 3795.dat
1 72 60 -232 60 1 0 0 0 1 0 0 0 1 3795.dat
1 72 60 -232 100 1 0 0 0 1 0 0 0 1 3795.dat
1 71 10 -256 10 1 0 0 0 1 0 0 0 1 3005.dat
1 71 50 -256 10 1 0 0 0 1 0 0 0 1 3005.dat
1 71 90 -256 10 1 0 0 0 1 0 0 0 1 3005.dat
1 71 30 -256 110 1 0 0 0 1 0 0 0 1 3005.dat
1 71 70 -256 110 1 0 0 0 1 0 0 0 1 3005.dat
1 71 110 -256 110 1 0 0 0 1 0 0 0 1 3005.dat
1 71 110 -256 30 1 0 0 0 1 0 0 0 1 3005.dat
1 71 110 -256 70 1 0 0 0 1 0 0 0 1 3005.dat
1 71 110 -256 110 1 0 0 0 1 0 0 0 1 3005.dat
1 71 10 -256 50 1 0 0 0 1 0 0 0 1 3005.dat
1 71 10 -256 90 1 0 0 0 1 0 0 0 1 3005.dat
1 0 60 -400 60 1 0 0 0 1 0 0 0 1 2039.dat
0 STEP
