0 Drawbridge
0 Name: Drawbridge.ldr
0 Author: Lego Builder

1 41 80 -8 10 1 0 0 0 1 0 0 0 1 4162.dat
1 41 80 -8 30 1 0 0 0 1 0 0 0 1 4162.dat
1 41 80 -8 50 1 0 0 0 1 0 0 0 1 4162.dat
1 41 80 -8 70 1 0 0 0 1 0 0 0 1 4162.dat
1 41 80 -8 90 1 0 0 0 1 0 0 0 1 4162.dat
1 41 80 -8 110 1 0 0 0 1 0 0 0 1 4162.dat
1 41 80 -8 130 1 0 0 0 1 0 0 0 1 4162.dat
1 41 80 -8 150 1 0 0 0 1 0 0 0 1 4162.dat
0 STEP
1 70 80 -32 20 1 0 0 0 1 0 0 0 1 3020.dat
1 70 80 -32 60 1 0 0 0 1 0 0 0 1 3020.dat
1 70 80 -32 100 1 0 0 0 1 0 0 0 1 3020.dat
1 70 80 -32 140 1 0 0 0 1 0 0 0 1 3020.dat
1 70 50 -24 10 1 0 0 0 1 0 0 0 1 3005.dat
1 70 110 -24 10 1 0 0 0 1 0 0 0 1 3005.dat
1 70 50 -24 150 1 0 0 0 1 0 0 0 1 3005.dat
1 70 110 -24 150 1 0 0 0 1 0 0 0 1 3005.dat
1 84 50 -40 20 0 0 1 0 1 0 -1 0 0 3069b.dat
1 84 50 -40 60 0 0 1 0 1 0 -1 0 0 3069b.dat
1 84 50 -40 100 0 0 1 0 1 0 -1 0 0 3069b.dat
1 84 50 -40 140 0 0 1 0 1 0 -1 0 0 3069b.dat
0 STEP
