0 Gatehouse
0 Name: Gatehouse.ldr
0 Author: Lego Builder

1 72 80 -8 20 1 0 0 0 1 0 0 0 1 3034.dat
1 71 20 -32 20 1 0 0 0 1 0 0 0 1 3003.dat
1 71 20 -56 20 1 0 0 0 1 0 0 0 1 3003.dat
1 71 20 -80 20 1 0 0 0 1 0 0 0 1 3003.dat
1 71 20 -104 20 1 0 0 0 1 0 0 0 1 3003.dat
1 71 20 -128 20 1 0 0 0 1 0 0 0 1 3003.dat
1 71 140 -32 20 1 0 0 0 1 0 0 0 1 3003.dat
1 71 140 -56 20 1 0 0 0 1 0 0 0 1 3003.dat
1 71 140 -80 20 1 0 0 0 1 0 0 0 1 3003.dat
1 71 140 -104 20 1 0 0 0 1 0 0 0 1 3003.dat
1 71 140 -128 20 1 0 0 0 1 0 0 0 1 3003.dat
1 71 80 -104 10 1 0 0 0 1 0 0 0 1 3455.dat
1 71 80 -104 30 1 0 0 0 1 0 0 0 1 3455.dat
1 71 80 -152 20 1 0 0 0 1 0 0 0 1 3007.dat
1 71 10 -176 10 1 0 0 0 1 0 0 0 1 3005.dat
1 71 50 -176 10 1 0 0 0 1 0 0 0 1 3005.dat
1 71 90 -176 10 1 0 0 0 1 0 0 0 1 3005.dat
1 71 130 -176 10 1 0 0 0 1 0 0 0 1 3005.dat
1 71 10 -176 30 1 0 0 0 1 0 0 0 1 3005.dat
1 71 50 -176 30 1 0 0 0 1 0 0 0 1 3005.dat
1 71 90 -176 30 1 0 0 0 1 0 0 0 1 3005.dat
1 71 130 -176 30 1 0 0 0 1 0 0 0 1 3005.dat
0 STEP
