0 Grassy hill
0 Name: Grassy hill.ldr
0 Author: Lego Builder

1 2 80 -24 20 1 0 0 0 1 0 0 0 1 3007.dat
1 2 80 -24 60 1 0 0 0 1 0 0 0 1 3007.dat
1 2 80 -24 100 1 0 0 0 1 0 0 0 1 3007.dat
1 2 80 -24 140 1 0 0 0 1 0 0 0 1 3007.dat
0 STEP
1 2 40 -48 70 1 0 0 0 1 0 0 0 1 3037.dat
1 2 40 -48 90 -1 0 0 0 1 0 0 0 -1 3037.dat
1 2 120 -48 70 1 0 0 0 1 0 0 0 1 3037.dat
1 2 120 -48 90 -1 0 0 0 1 0 0 0 -1 3037.dat
1 2 40 -48 30 1 0 0 0 1 0 0 0 1 3037.dat
1 2 120 -48 30 1 0 0 0 1 0 0 0 1 3037.dat
1 2 40 -48 130 -1 0 0 0 1 0 0 0 -1 3037.dat
1 2 120 -48 130 -1 0 0 0 1 0 0 0 -1 3037.dat
0 STEP
1 2 80 -72 80 1 0 0 0 1 0 0 0 1 3041.dat
1 2 130 -32 70 1 0 0 0 1 0 0 0 1 3470.dat
0 STEP
