0 House
0 Name: House.ldr
0 Author: Lego Builder

1 71 80 0 20 1 0 0 0 1 0 0 0 1 3034.dat
1 71 200 0 20 1 0 0 0 1 0 0 0 1 3020.dat
1 71 80 0 60 1 0 0 0 1 0 0 0 1 3034.dat
1 71 200 0 60 1 0 0 0 1 0 0 0 1 3020.dat
1 71 80 0 100 1 0 0 0 1 0 0 0 1 3034.dat
1 71 200 0 100 1 0 0 0 1 0 0 0 1 3020.dat
1 71 80 0 140 1 0 0 0 1 0 0 0 1 3034.dat
1 71 200 0 140 1 0 0 0 1 0 0 0 1 3020.dat
0 STEP
1 15 40 -24 10 1 0 0 0 1 0 0 0 1 3010.dat
1 15 200 -24 10 1 0 0 0 1 0 0 0 1 3010.dat
1 15 20 -48 10 1 0 0 0 1 0 0 0 1 3004.dat
1 15 60 -48 10 1 0 0 0 1 0 0 0 1 3004.dat
1 15 180 -48 10 1 0 0 0 1 0 0 0 1 3004.dat
1 15 220 -48 10 1 0 0 0 1 0 0 0 1 3004.dat
1 15 10 -72 10 1 0 0 0 1 0 0 0 1 3005.dat
1 15 70 -72 10 1 0 0 0 1 0 0 0 1 3005.dat
1 15 170 -72 10 1 0 0 0 1 0 0 0 1 3005.dat
1 15 230 -72 10 1 0 0 0 1 0 0 0 1 3005.dat
1 15 10 -96 10 1 0 0 0 1 0 0 0 1 3005.dat
1 15 70 -96 10 1 0 0 0 1 0 0 0 1 3005.dat
1 15 170 -96 10 1 0 0 0 1 0 0 0 1 3005.dat
1 15 230 -96 10 1 0 0 0 1 0 0 0 1 3005.dat
1 15 40 -120 10 1 0 0 0 1 0 0 0 1 3010.dat
1 15 200 -120 10 1 0 0 0 1 0 0 0 1 3010.dat
1 15 20 -144 10 1 0 0 0 1 0 0 0 1 3004.dat
1 15 60 -144 10 1 0 0 0 1 0 0 0 1 3004.dat
1 15 180 -144 10 1 0 0 0 1 0 0 0 1 3004.dat
1 15 220 -144 10 1 0 0 0 1 0 0 0 1 3004.dat
1 15 60 -24 150 1 0 0 0 1 0 0 0 1 3009.dat
1 15 180 -24 150 1 0 0 0 1 0 0 0 1 3009.dat
1 15 20 -48 150 1 0 0 0 1 0 0 0 1 3004.dat
1 15 100 -48 150 1 0 0 0 1 0 0 0 1 3009.dat
1 15 200 -48 150 1 0 0 0 1 0 0 0 1 3010.dat
1 15 40 -72 150 1 0 0 0 1 0 0 0 1 3010.dat
1 15 90 -72 150 1 0 0 0 1 0 0 0 1 3005.dat
1 15 180 -72 150 1 0 0 0 1 0 0 0 1 3010.dat
1 15 230 -72 150 1 0 0 0 1 0 0 0 1 3005.dat
1 15 20 -96 150 1 0 0 0 1 0 0 0 1 3004.dat
1 15 70 -96 150 1 0 0 0 1 0 0 0 1 3622.dat
1 15 160 -96 150 1 0 0 0 1 0 0 0 1 3004.dat
1 15 210 -96 150 1 0 0 0 1 0 0 0 1 3622.dat
1 15 60 -120 150 1 0 0 0 1 0 0 0 1 3009.dat
1 15 180 -120 150 1 0 0 0 1 0 0 0 1 3009.dat
1 15 20 -144 150 1 0 0 0 1 0 0 0 1 3004.dat
1 15 100 -144 150 1 0 0 0 1 0 0 0 1 3009.dat
1 15 200 -144 150 1 0 0 0 1 0 0 0 1 3010.dat
1 15 10 -24 80 0 0 1 0 1 0 -1 0 0 3009.dat
1 15 10 -48 40 0 0 1 0 1 0 -1 0 0 3004.dat
1 15 10 -48 100 0 0 1 0 1 0 -1 0 0 3010.dat
1 15 10 -72 40 0 0 1 0 1 0 -1 0 0 3004.dat
1 15 10 -72 120 0 0 1 0 1 0 -1 0 0 3004.dat
1 15 10 -96 40 0 0 1 0 1 0 -1 0 0 3004.dat
1 15 10 -96 120 0 0 1 0 1 0 -1 0 0 3004.dat
1 15 10 -120 80 0 0 1 0 1 0 -1 0 0 3009.dat
1 15 10 -144 40 0 0 1 0 1 0 -1 0 0 3004.dat
1 15 10 -144 100 0 0 1 0 1 0 -1 0 0 3010.dat
1 15 230 -24 80 0 0 1 0 1 0 -1 0 0 3009.dat
1 15 230 -48 40 0 0 1 0 1 0 -1 0 0 3004.dat
1 15 230 -48 100 0 0 1 0 1 0 -1 0 0 3010.dat
1 15 230 -72 40 0 0 1 0 1 0 -1 0 0 3004.dat
1 15 230 -72 120 0 0 1 0 1 0 -1 0 0 3004.dat
1 15 230 -96 40 0 0 1 0 1 0 -1 0 0 3004.dat
1 15 230 -96 120 0 0 1 0 1 0 -1 0 0 3004.dat
1 15 230 -120 80 0 0 1 0 1 0 -1 0 0 3009.dat
1 15 230 -144 40 0 0 1 0 1 0 -1 0 0 3004.dat
1 15 230 -144 100 0 0 1 0 1 0 -1 0 0 3010.dat
0 STEP
1 15 120 -144 10 1 0 0 0 1 0 0 0 1 60596.dat
1 1 90 -144 10 1 0 0 0 1 0 0 0 1 60623.dat
1 15 40 -96 10 1 0 0 0 1 0 0 0 1 60592.dat
1 47 40 -96 10 1 0 0 0 1 0 0 0 1 60601.dat
1 15 200 -96 10 1 0 0 0 1 0 0 0 1 60592.dat
1 47 200 -96 10 1 0 0 0 1 0 0 0 1 60601.dat
1 15 120 -96 150 -1 0 0 0 1 0 0 0 -1 60592.dat
1 47 120 -96 150 -1 0 0 0 1 0 0 0 -1 60601.dat
1 15 10 -96 80 0 0 1 0 1 0 -1 0 0 60592.dat
1 47 10 -96 80 0 0 1 0 1 0 -1 0 0 60601.dat
1 15 230 -96 80 0 0 1 0 1 0 -1 0 0 60592.dat
1 47 230 -96 80 0 0 1 0 1 0 -1 0 0 60601.dat
0 STEP
1 15 80 -152 20 1 0 0 0 1 0 0 0 1 3034.dat
1 15 200 -152 20 1 0 0 0 1 0 0 0 1 3020.dat
1 15 80 -152 60 1 0 0 0 1 0 0 0 1 3034.dat
1 15 200 -152 60 1 0 0 0 1 0 0 0 1 3020.dat
1 15 80 -152 100 1 0 0 0 1 0 0 0 1 3034.dat
1 15 200 -152 100 1 0 0 0 1 0 0 0 1 3020.dat
1 15 80 -152 140 1 0 0 0 1 0 0 0 1 3034.dat
1 15 200 -152 140 1 0 0 0 1 0 0 0 1 3020.dat
0 STEP
1 4 40 -176 30 1 0 0 0 1 0 0 0 1 3037.dat
1 4 40 -176 130 -1 0 0 0 1 0 0 0 -1 3037.dat
1 4 120 -176 30 1 0 0 0 1 0 0 0 1 3037.dat
1 4 120 -176 130 -1 0 0 0 1 0 0 0 -1 3037.dat
1 4 200 -176 30 1 0 0 0 1 0 0 0 1 3037.dat
1 4 200 -176 130 -1 0 0 0 1 0 0 0 -1 3037.dat
1 4 80 -176 60 1 0 0 0 1 0 0 0 1 3007.dat
1 4 200 -176 60 1 0 0 0 1 0 0 0 1 3001.dat
1 4 80 -176 100 1 0 0 0 1 0 0 0 1 3007.dat
1 4 200 -176 100 1 0 0 0 1 0 0 0 1 3001.dat
0 STEP
1 4 40 -200 50 1 0 0 0 1 0 0 0 1 3037.dat
1 4 40 -200 110 -1 0 0 0 1 0 0 0 -1 3037.dat
1 4 120 -200 50 1 0 0 0 1 0 0 0 1 3037.dat
1 4 120 -200 110 -1 0 0 0 1 0 0 0 -1 3037.dat
1 4 200 -200 50 1 0 0 0 1 0 0 0 1 3037.dat
1 4 200 -200 110 -1 0 0 0 1 0 0 0 -1 3037.dat
1 4 80 -200 80 1 0 0 0 1 0 0 0 1 3007.dat
1 4 200 -200 80 1 0 0 0 1 0 0 0 1 3001.dat
0 STEP
1 4 40 -224 70 1 0 0 0 1 0 0 0 1 3037.dat
1 4 40 -224 90 -1 0 0 0 1 0 0 0 -1 3037.dat
1 4 120 -224 70 1 0 0 0 1 0 0 0 1 3037.dat
1 4 120 -224 90 -1 0 0 0 1 0 0 0 -1 3037.dat
1 4 200 -224 70 1 0 0 0 1 0 0 0 1 3037.dat
1 4 200 -224 90 -1 0 0 0 1 0 0 0 -1 3037.dat
0 STEP
1 4 40 -248 80 1 0 0 0 1 0 0 0 1 3041.dat
1 4 120 -248 80 1 0 0 0 1 0 0 0 1 3041.dat
1 4 200 -248 80 1 0 0 0 1 0 0 0 1 3041.dat
0 STEP
