0 Landing pad
0 Name: Landing pad.ldr
0 Author: Lego Builder

1 72 80 -8 20 1 0 0 0 1 0 0 0 1 3034.dat
1 72 200 -8 20 1 0 0 0 1 0 0 0 1 3020.dat
1 72 80 -8 60 1 0 0 0 1 0 0 0 1 3034.dat
1 72 200 -8 60 1 0 0 0 1 0 0 0 1 3020.dat
1 72 80 -8 100 1 0 0 0 1 0 0 0 1 3034.dat
1 72 200 -8 100 1 0 0 0 1 0 0 0 1 3020.dat
1 72 80 -8 140 1 0 0 0 1 0 0 0 1 3034.dat
1 72 200 -8 140 1 0 0 0 1 0 0 0 1 3020.dat
1 72 80 -8 180 1 0 0 0 1 0 0 0 1 3034.dat
1 72 200 -8 180 1 0 0 0 1 0 0 0 1 3020.dat
1 72 80 -8 220 1 0 0 0 1 0 0 0 1 3034.dat
1 72 200 -8 220 1 0 0 0 1 0 0 0 1 3020.dat
1 71 120 -16 50 1 0 0 0 1 0 0 0 1 4162.dat
1 71 120 -16 70 1 0 0 0 1 0 0 0 1 4162.dat
1 71 120 -16 90 1 0 0 0 1 0 0 0 1 4162.dat
1 71 120 -16 110 1 0 0 0 1 0 0 0 1 4162.dat
1 71 120 -16 130 1 0 0 0 1 0 0 0 1 4162.dat
1 71 120 -16 150 1 0 0 0 1 0 0 0 1 4162.dat
1 71 120 -16 170 1 0 0 0 1 0 0 0 1 4162.dat
1 71 120 -16 190 1 0 0 0 1 0 0 0 1 4162.dat
1 34 10 -32 10 1 0 0 0 1 0 0 0 1 3062b.dat
1 34 230 -32 10 1 0 0 0 1 0 0 0 1 3062b.dat
1 34 10 -32 230 1 0 0 0 1 0 0 0 1 3062b.dat
1 34 230 -32 230 1 0 0 0 1 0 0 0 1 3062b.dat
1 14 70 -24 110 1 0 0 0 1 0 0 0 1 3070b.dat
1 14 110 -24 70 1 0 0 0 1 0 0 0 1 3070b.dat
1 14 90 -24 110 1 0 0 0 1 0 0 0 1 3070b.dat
1 14 110 -24 90 1 0 0 0 1 0 0 0 1 3070b.dat
1 14 110 -24 110 1 0 0 0 1 0 0 0 1 3070b.dat
1 14 110 -24 110 1 0 0 0 1 0 0 0 1 3070b.dat
1 14 130 -24 110 1 0 0 0 1 0 0 0 1 3070b.dat
1 14 110 -24 130 1 0 0 0 1 0 0 0 1 3070b.dat
1 14 150 -24 110 1 0 0 0 1 0 0 0 1 3070b.dat
1 14 110 -24 150 1 0 0 0 1 0 0 0 1 3070b.dat
1 14 170 -24 110 1 0 0 0 1 0 0 0 1 3070b.dat
1 14 110 -24 170 1 0 0 0 1 0 0 0 1 3070b.dat
0 STEP
