0 Pond
0 Name: Pond.ldr
0 Author: Lego Builder

1 19 60 -8 60 1 0 0 0 1 0 0 0 1 3958.dat
1 43 60 -16 30 1 0 0 0 1 0 0 0 1 2431.dat
1 43 60 -16 50 1 0 0 0 1 0 0 0 1 2431.dat
1 43 60 -16 70 1 0 0 0 1 0 0 0 1 2431.dat
1 43 60 -16 90 1 0 0 0 1 0 0 0 1 2431.dat
1 72 10 -16 10 1 0 0 0 1 0 0 0 1 3070b.dat
1 72 110 -16 10 1 0 0 0 1 0 0 0 1 3070b.dat
1 72 10 -16 110 1 0 0 0 1 0 0 0 1 3070b.dat
1 72 110 -16 110 1 0 0 0 1 0 0 0 1 3070b.dat
1 2 50 -24 10 1 0 0 0 1 0 0 0 1 6255.dat
1 2 10 -24 70 1 0 0 0 1 0 0 0 1 6255.dat
1 2 110 -24 50 1 0 0 0 1 0 0 0 1 6255.dat
0 STEP
