0 Propeller gearbox
0 Name: Propeller gearbox.ldr
0 Author: Lego Builder

1 72 80 0 -20 1 0 0 0 1 0 0 0 1 3034.dat
1 72 200 0 -20 1 0 0 0 1 0 0 0 1 3020.dat
1 72 80 0 20 1 0 0 0 1 0 0 0 1 3034.dat
1 72 200 0 20 1 0 0 0 1 0 0 0 1 3020.dat
1 72 80 0 60 1 0 0 0 1 0 0 0 1 3034.dat
1 72 200 0 60 1 0 0 0 1 0 0 0 1 3020.dat
1 72 80 0 100 1 0 0 0 1 0 0 0 1 3034.dat
1 72 200 0 100 1 0 0 0 1 0 0 0 1 3020.dat
0 STEP
1 71 120 -24 10 1 0 0 0 1 0 0 0 1 6112.dat
1 71 120 -32 10 1 0 0 0 1 0 0 0 1 60479.dat
1 71 120 -40 10 1 0 0 0 1 0 0 0 1 60479.dat
1 71 120 -64 10 1 0 0 0 1 0 0 0 1 6112.dat
1 71 120 -72 10 1 0 0 0 1 0 0 0 1 60479.dat
1 71 120 -80 10 1 0 0 0 1 0 0 0 1 60479.dat
1 72 120 -104 10 1 0 0 0 1 0 0 0 1 3895.dat
1 71 120 -24 90 1 0 0 0 1 0 0 0 1 6112.dat
1 71 120 -32 90 1 0 0 0 1 0 0 0 1 60479.dat
1 71 120 -40 90 1 0 0 0 1 0 0 0 1 60479.dat
1 71 120 -64 90 1 0 0 0 1 0 0 0 1 6112.dat
1 71 120 -72 90 1 0 0 0 1 0 0 0 1 60479.dat
1 71 120 -80 90 1 0 0 0 1 0 0 0 1 60479.dat
1 72 120 -104 90 1 0 0 0 1 0 0 0 1 3895.dat
0 STEP
1 0 60 -94 40 0 0 1 0 1 0 -1 0 0 3706.dat
0 !BUILDER MOTOR 10
1 4 60 -94 -10 1 0 0 0 1 0 0 0 1 3648b.dat
1 71 60 -94 30 1 0 0 0 1 0 0 0 1 3649.dat
1 0 120 -94 50 0 0 1 0 1 0 -1 0 0 32073.dat
1 72 120 -94 30 1 0 0 0 1 0 0 0 1 3647.dat
1 71 120 -94 50 1 0 0 0 1 0 0 0 1 3648b.dat
1 0 180 -94 40 0 0 1 0 1 0 -1 0 0 3706.dat
1 71 180 -94 50 1 0 0 0 1 0 0 0 1 3648b.dat
1 14 180 -94 -10 1 0 0 0 1 0 0 0 1 41530.dat
0 STEP
1 1 20 -40 -30 1 0 0 0 1 0 0 0 1 970c00.dat
1 1 20 -72 -30 1 0 0 0 1 0 0 0 1 76382p7o.dat
1 14 20 -96 -30 1 0 0 0 1 0 0 0 1 3626c.dat
1 14 20 -96 -30 1 0 0 0 1 0 0 0 1 3833.dat
0 STEP
