0 Rover
0 Name: Rover.ldr
0 Author: Lego Builder

1 71 60 -8 20 1 0 0 0 1 0 0 0 1 3795.dat
1 0 20 -4.06 20 0 0 1 0 1 0 -1 0 0 4600.dat
1 72 20 1.94 46 1 0 0 0 1 0 0 0 1 4624.dat
1 0 20 1.94 46 1 0 0 0 1 0 0 0 1 3641.dat
1 72 20 1.94 -6 -1 0 0 0 1 0 0 0 -1 4624.dat
1 0 20 1.94 -6 -1 0 0 0 1 0 0 0 -1 3641.dat
1 0 100 -4.06 20 0 0 1 0 1 0 -1 0 0 4600.dat
1 72 100 1.94 46 1 0 0 0 1 0 0 0 1 4624.dat
1 0 100 1.94 46 1 0 0 0 1 0 0 0 1 3641.dat
1 72 100 1.94 -6 -1 0 0 0 1 0 0 0 -1 4624.dat
1 0 100 1.94 -6 -1 0 0 0 1 0 0 0 -1 3641.dat
1 71 60 -32 20 1 0 0 0 1 0 0 0 1 3001.dat
1 1 20 -40 40 0 0 1 0 1 0 -1 0 0 3020.dat
1 1 80 -40 40 0 0 1 0 1 0 -1 0 0 3020.dat
1 71 40 -64 20 1 0 0 0 1 0 0 0 1 3003.dat
1 383 40 -72 20 1 0 0 0 1 0 0 0 1 4740.dat
1 41 110 -48 20 0 0 1 0 1 0 -1 0 0 3069b.dat
0 STEP
