0 Space shuttle
0 Name: Space shuttle.ldr
0 Author: Lego Builder

1 15 80 -8 20 1 0 0 0 1 0 0 0 1 3020.dat
1 15 80 -8 60 1 0 0 0 1 0 0 0 1 3020.dat
1 15 80 -8 100 1 0 0 0 1 0 0 0 1 3020.dat
1 15 80 -8 140 1 0 0 0 1 0 0 0 1 3020.dat
1 15 80 -8 180 1 0 0 0 1 0 0 0 1 3020.dat
1 15 20 -8 140 1 0 0 0 1 0 0 0 1 41769a.dat
1 15 140 -8 140 1 0 0 0 1 0 0 0 1 41770a.dat
0 STEP
1 15 60 -32 30 1 0 0 0 1 0 0 0 1 3039.dat
1 15 100 -32 30 1 0 0 0 1 0 0 0 1 3039.dat
1 15 80 -32 60 1 0 0 0 1 0 0 0 1 3001.dat
1 15 80 -32 100 1 0 0 0 1 0 0 0 1 3001.dat
1 15 80 -32 140 1 0 0 0 1 0 0 0 1 3001.dat
1 15 80 -32 180 1 0 0 0 1 0 0 0 1 3001.dat
1 15 60 -56 60 1 0 0 0 1 0 0 0 1 3003.dat
1 15 100 -56 60 1 0 0 0 1 0 0 0 1 3003.dat
1 15 60 -56 100 1 0 0 0 1 0 0 0 1 3003.dat
1 15 100 -56 100 1 0 0 0 1 0 0 0 1 3003.dat
1 15 60 -56 140 1 0 0 0 1 0 0 0 1 3003.dat
1 15 100 -56 140 1 0 0 0 1 0 0 0 1 3003.dat
1 15 60 -56 180 1 0 0 0 1 0 0 0 1 3003.dat
1 15 100 -56 180 1 0 0 0 1 0 0 0 1 3003.dat
0 STEP
1 41 60 -80 70 1 0 0 0 1 0 0 0 1 3039.dat
1 41 100 -80 70 1 0 0 0 1 0 0 0 1 3039.dat
1 15 80 -80 100 1 0 0 0 1 0 0 0 1 3001.dat
1 15 80 -80 140 1 0 0 0 1 0 0 0 1 3001.dat
1 15 80 -80 180 1 0 0 0 1 0 0 0 1 3001.dat
1 15 60 -88 100 1 0 0 0 1 0 0 0 1 3068b.dat
1 15 100 -88 100 1 0 0 0 1 0 0 0 1 3068b.dat
1 15 80 -104 150 -1 0 0 0 1 0 0 0 -1 3039.dat
1 57 50 -104 190 1 0 0 0 1 0 0 0 1 3062b.dat
1 57 90 -104 190 1 0 0 0 1 0 0 0 1 3062b.dat
0 STEP
