0 Windmill
0 Name: Windmill.ldr
0 Author: Lego Builder

1 2 80 0 80 1 0 0 0 1 0 0 0 1 41539.dat
0 STEP
1 15 40 -24 30 1 0 0 0 1 0 0 0 1 3004.dat
1 15 120 -24 30 1 0 0 0 1 0 0 0 1 3004.dat
1 15 40 -48 30 1 0 0 0 1 0 0 0 1 3004.dat
1 15 120 -48 30 1 0 0 0 1 0 0 0 1 3004.dat
1 15 80 -72 30 1 0 0 0 1 0 0 0 1 3009.dat
1 15 40 -96 30 1 0 0 0 1 0 0 0 1 3004.dat
1 15 100 -96 30 1 0 0 0 1 0 0 0 1 3010.dat
1 15 80 -120 30 1 0 0 0 1 0 0 0 1 3009.dat
1 15 40 -144 30 1 0 0 0 1 0 0 0 1 3004.dat
1 15 100 -144 30 1 0 0 0 1 0 0 0 1 3010.dat
1 15 80 -168 30 1 0 0 0 1 0 0 0 1 3009.dat
1 15 80 -24 130 1 0 0 0 1 0 0 0 1 3009.dat
1 15 40 -48 130 1 0 0 0 1 0 0 0 1 3004.dat
1 15 100 -48 130 1 0 0 0 1 0 0 0 1 3010.dat
1 15 80 -72 130 1 0 0 0 1 0 0 0 1 3009.dat
1 15 40 -96 130 1 0 0 0 1 0 0 0 1 3004.dat
1 15 100 -96 130 1 0 0 0 1 0 0 0 1 3010.dat
1 15 80 -120 130 1 0 0 0 1 0 0 0 1 3009.dat
1 15 40 -144 130 1 0 0 0 1 0 0 0 1 3004.dat
1 15 100 -144 130 1 0 0 0 1 0 0 0 1 3010.dat
1 15 80 -168 130 1 0 0 0 1 0 0 0 1 3009.dat
1 15 30 -24 80 0 0 1 0 1 0 -1 0 0 3010.dat
1 15 30 -48 60 0 0 1 0 1 0 -1 0 0 3004.dat
1 15 30 -48 100 0 0 1 0 1 0 -1 0 0 3004.dat
1 15 30 -72 80 0 0 1 0 1 0 -1 0 0 3010.dat
1 15 30 -96 50 0 0 1 0 1 0 -1 0 0 3005.dat
1 15 30 -96 110 0 0 1 0 1 0 -1 0 0 3005.dat
1 15 30 -120 50 0 0 1 0 1 0 -1 0 0 3005.dat
1 15 30 -120 110 0 0 1 0 1 0 -1 0 0 3005.dat
1 15 30 -144 60 0 0 1 0 1 0 -1 0 0 3004.dat
1 15 30 -144 100 0 0 1 0 1 0 -1 0 0 3004.dat
1 15 30 -168 80 0 0 1 0 1 0 -1 0 0 3010.dat
1 15 130 -24 80 0 0 1 0 1 0 -1 0 0 3010.dat
1 15 130 -48 60 0 0 1 0 1 0 -1 0 0 3004.dat
1 15 130 -48 100 0 0 1 0 1 0 -1 0 0 3004.dat
1 15 130 -72 80 0 0 1 0 1 0 -1 0 0 3010.dat
1 15 130 -96 50 0 0 1 0 1 0 -1 0 0 3005.dat
1 15 130 -96 110 0 0 1 0 1 0 -1 0 0 3005.dat
1 15 130 -120 50 0 0 1 0 1 0 -1 0 0 3005.dat
1 15 130 -120 110 0 0 1 0 1 0 -1 0 0 3005.dat
1 15 130 -144 60 0 0 1 0 1 0 -1 0 0 3004.dat
1 15 130 -144 100 0 0 1 0 1 0 -1 0 0 3004.dat
1 15 130 -168 80 0 0 1 0 1 0 -1 0 0 3010.dat
1 15 80 -72 30 1 0 0 0 1 0 0 0 1 3659.dat
0 STEP
1 70 80 -192 30 1 0 0 0 1 0 0 0 1 3894.dat
1 70 80 -192 130 1 0 0 0 1 0 0 0 1 3894.dat
1 70 30 -176 80 0 0 1 0 1 0 -1 0 0 3710.dat
1 70 130 -176 80 0 0 1 0 1 0 -1 0 0 3710.dat
0 STEP
1 70 80 -200 40 1 0 0 0 1 0 0 0 1 3795.dat
1 70 80 -200 80 1 0 0 0 1 0 0 0 1 3795.dat
1 70 80 -200 120 1 0 0 0 1 0 0 0 1 3795.dat
1 320 60 -224 50 1 0 0 0 1 0 0 0 1 3037.dat
1 320 60 -224 110 -1 0 0 0 1 0 0 0 -1 3037.dat
1 320 120 -224 50 1 0 0 0 1 0 0 0 1 3039.dat
1 320 120 -224 110 -1 0 0 0 1 0 0 0 -1 3039.dat
1 320 80 -224 80 1 0 0 0 1 0 0 0 1 2456.dat
0 STEP
1 320 60 -248 70 1 0 0 0 1 0 0 0 1 3037.dat
1 320 60 -248 90 -1 0 0 0 1 0 0 0 -1 3037.dat
1 320 120 -248 70 1 0 0 0 1 0 0 0 1 3039.dat
1 320 120 -248 90 -1 0 0 0 1 0 0 0 -1 3039.dat
0 STEP
1 320 60 -272 80 1 0 0 0 1 0 0 0 1 3041.dat
1 320 120 -272 80 1 0 0 0 1 0 0 0 1 3043.dat
0 STEP
1 0 80 -182 50 0 0 1 0 1 0 -1 0 0 3707.dat
1 71 80 -182 10 1 0 0 0 1 0 0 0 1 3713.dat
0 !BUILDER MOTOR 8
1 15 80 -182 -10 1 0 0 0 1 0 0 0 1 2952.dat
1 15 80 -182 -10 0 -1 0 1 0 0 0 0 1 2952.dat
0 STEP
1 379 60 -40 150 1 0 0 0 1 0 0 0 1 3815b.dat
1 379 60 -28 150 1 0 0 0 1 0 0 0 1 3816c.dat
1 379 60 -28 150 1 0 0 0 1 0 0 0 1 3817c.dat
1 15 60 -72 150 1 0 0 0 1 0 0 0 1 76382p0e.dat
1 14 60 -96 150 1 0 0 0 1 0 0 0 1 3626c.dat
1 70 60 -96 150 1 0 0 0 1 0 0 0 1 3901.dat
0 STEP
